# xmcd
#
# Track frame offsets:
#	150
#	12413
#	25555
#	38058
#	55860
#	69050
#	83780
#	107073
#	123053
#	133170
#	146623
#	163028
#
# Disc length: 2427 seconds
#
# Revision: 1
# Processed by: cddbd v1.5.2PL0 Copyright (c) Steve Scherf et al.
# Submitted via: audiograbber 1.83.01
#
DISCID=9209790c
DTITLE=Joe Sun - Some old memories 1988-1993
DYEAR=1900
DGENRE=
TTITLE0=Some old memory
TTITLE1=Doreen
TTITLE2=Twilight Zone
TTITLE3=Savannah is blue
TTITLE4=You sure took my time
TTITLE5=Slow motion
TTITLE6=Up on the hill
TTITLE7=Hank and Bogart still live
TTITLE8=Could I stay with you tonight
TTITLE9=One tear at a time
TTITLE10=Out on the road
TTITLE11=Remember me
EXTD=
EXTT0=
EXTT1=
EXTT2=
EXTT3=
EXTT4=
EXTT5=
EXTT6=
EXTT7=
EXTT8=
EXTT9=
EXTT10=
EXTT11=
PLAYORDER=
